<svg width="105" height="105" viewBox="0 0 105 105" fill="none" xmlns="http://www.w3.org/2000/svg">
<mask id="mask0_2544_297" style="mask-type:luminance" maskUnits="userSpaceOnUse" x="22" y="0" width="60" height="79">
<path d="M22.6558 0H81.6594V78.1505H22.6558V0Z" fill="white"/>
</mask>
<g mask="url(#mask0_2544_297)">
<mask id="mask1_2544_297" style="mask-type:luminance" maskUnits="userSpaceOnUse" x="22" y="0" width="60" height="79">
<path fill-rule="evenodd" clip-rule="evenodd" d="M54.1683 7.01323L78.0042 30.8125C82.8785 35.6766 82.8785 43.6137 78.0042 48.4778L55.3101 71.1374L52.0334 67.8668L48.4047 64.2442L45.7712 61.6148L44.3751 63.0069L43.1377 64.2442L42.4946 64.8853L38.9249 61.3217L39.0999 61.1467L42.4356 57.8172L40.6202 56.0059L52.5829 44.0615C55.019 41.6294 55.019 37.6609 52.5829 35.2288L39.4805 22.1468L41.2938 20.3355L37.9582 17.0039L37.7832 16.8289L41.3529 13.2653L41.996 13.9064L43.2334 15.1437L44.6295 16.5358L47.263 13.9064L50.8917 10.2858L54.1683 7.01323ZM40.0076 76.8928L41.7029 75.1996L40.0076 73.5043L38.3103 75.1996L40.0076 76.8928ZM32.3411 71.986L33.6274 70.6998L32.3411 69.4136L31.0529 70.6998L32.3411 71.986ZM34.126 76.2212L35.7338 74.6155L34.126 73.0077L32.5162 74.6155L34.126 76.2212ZM27.9228 73.1257L29.1215 71.927L27.9228 70.7283L26.722 71.927L27.9228 73.1257ZM24.2941 71.0214L24.7907 70.5248L24.2941 70.0282L23.7975 70.5248L24.2941 71.0214ZM27.8047 69.094L28.5374 68.3634L27.8047 67.6328L27.0741 68.3634L27.8047 69.092V69.094ZM31.3459 65.968L32.4286 64.8853L31.3459 63.8046L30.2632 64.8853L31.3459 65.968ZM34.185 68.5079L35.3552 67.3397L34.185 66.1715L33.0127 67.3397L34.185 68.5079ZM37.6082 60.7091L39.509 58.8103L37.6082 56.9115L35.7053 58.8103L37.6082 60.7091ZM35.2657 63.6886L36.5539 62.4024L35.2657 61.1182L33.9794 62.4024L35.2657 63.6886ZM38.3978 67.6328L40.5327 65.4999L38.3978 63.3671L36.2609 65.4999L38.3978 67.6328ZM36.906 72.7167L38.7194 70.9033L36.906 69.092L35.0906 70.9033L36.906 72.7167ZM40.2986 70.9033L41.821 69.3851L40.2986 67.8668L38.7784 69.3851L40.2986 70.9033ZM43.7523 68.0419L45.6532 66.1431L43.7523 64.2442L41.8494 66.1431L43.7523 68.0419ZM44.5135 74.2939L47.029 71.7805L44.5135 69.2691L41.996 71.7805L44.5135 74.2939ZM46.5018 78.1506L49.1354 75.5211L46.5018 72.8917L43.8683 75.5211L46.5018 78.1506ZM50.043 74.1474L51.7404 72.4521L50.043 70.7588L48.3457 72.4521L50.043 74.1474ZM45.1281 67.5148L48.7548 71.1374L52.0334 67.8668L55.6601 64.2442L52.0334 60.6216L48.4047 64.2442L47.0086 65.6363L45.7712 66.8737L45.1281 67.5148ZM38.8659 1.25777L40.5632 2.95104L38.8659 4.64633L37.1686 2.95104L38.8659 1.25777ZM31.1994 6.1666L32.4877 7.4508L31.1994 8.73702L29.9111 7.4508L31.1994 6.1666ZM32.9842 1.92938L34.5941 3.53513L32.9842 5.14291L31.3744 3.53513L32.9842 1.92938ZM26.7811 5.02691L27.9818 6.22359L26.7811 7.4223L25.5823 6.22359L26.7811 5.02691ZM23.1523 7.12924L23.651 7.62582L23.1523 8.1224L22.6558 7.62582L23.1523 7.12924ZM26.665 9.05858L27.3957 9.78717L26.665 10.5178L25.9324 9.78717L26.665 9.05858ZM30.2042 12.1846L31.2869 13.2653L30.2042 14.346L29.1215 13.2632L30.2042 12.1846ZM33.0433 9.64064L34.2135 10.8109L33.0433 11.979L31.873 10.8109L33.0433 9.64064ZM36.4664 17.4414L38.3693 19.3403L36.4664 21.2391L34.5635 19.3403L36.4664 17.4414ZM34.126 14.462L35.4142 15.7482L34.126 17.0324L32.8377 15.7482L34.126 14.462ZM37.2561 10.5178L39.393 12.6507L37.2561 14.7835L35.1212 12.6507L37.2561 10.5178ZM35.7643 5.43598L37.5776 7.24728L35.7643 9.05858L33.951 7.24728L35.7643 5.43598ZM39.159 7.24728L40.6792 8.76552L39.159 10.2838L37.6366 8.76552L39.159 7.24728ZM42.6106 10.1087L44.5135 12.0096L42.6106 13.9064L40.7098 12.0096L42.6106 10.1087ZM43.3718 3.85669L45.8872 6.37012L43.3718 8.88152L40.8563 6.37012L43.3718 3.85669ZM45.3622 0.0020752L47.9957 2.62948L45.3622 5.26095L42.7286 2.62948L45.3622 0.0020752ZM48.9013 4.00322L50.5986 5.69851L48.9013 7.39178L47.204 5.69851L48.9013 4.00322ZM43.9864 10.6358L47.6151 7.01323L50.8917 10.2838L54.5204 13.9064L50.8917 17.529L47.263 13.9064L45.8669 12.5143L44.6295 11.2789L43.9864 10.6358Z" fill="white"/>
</mask>
<g mask="url(#mask1_2544_297)">
<path d="M22.6558 0.0020752V78.1506H81.6594V0.0020752H22.6558Z" fill="url(#paint0_linear_2544_297)"/>
</g>
</g>
<path d="M9.75253 88.2349V91.2225H3.92381V94.6904H9.06872V97.6699H3.92381V101.415H9.75253V104.402H0V88.2349H9.75253Z" fill="#D9D9D9"/>
<path d="M20.3591 100.34C20.9289 99.7863 21.2138 99.0048 21.2138 97.9953C21.2138 96.9859 20.9289 96.2105 20.3591 95.6671C19.7933 95.1196 19.1461 94.8449 18.4134 94.8449C17.6808 94.8449 17.0295 95.1217 16.4597 95.6752C15.8939 96.2288 15.613 97.0103 15.613 98.0197C15.613 99.0292 15.8939 99.8066 16.4597 100.348C17.0295 100.891 17.6808 101.162 18.4134 101.162C19.1461 101.162 19.7933 100.889 20.3591 100.34ZM13.3092 102.725C12.1797 101.5 11.616 99.9308 11.616 98.0197C11.616 96.1046 12.1797 94.5315 13.3092 93.2981C14.4428 92.0669 15.8247 91.4502 17.4528 91.4502C19.085 91.4502 20.3387 92.0567 21.2138 93.2656V87.4043H25.1376V104.402H21.2138V102.538C20.2634 103.889 18.9914 104.565 17.3958 104.565C15.8043 104.565 14.4428 103.952 13.3092 102.725Z" fill="#D9D9D9"/>
<path d="M36.7161 91.5889H40.6399V104.402H36.7161V102.522C35.902 103.869 34.6077 104.541 32.833 104.541C31.3616 104.541 30.171 104.052 29.2592 103.075C28.3475 102.094 27.8916 100.761 27.8916 99.0783V91.5889H31.7991V98.5491C31.7991 99.3754 32.0149 100.012 32.4504 100.462C32.89 100.914 33.4924 101.138 34.2576 101.138C35.0228 101.138 35.6212 100.914 36.0567 100.462C36.4963 100.012 36.7161 99.3754 36.7161 98.5491V91.5889Z" fill="#D9D9D9"/>
<path d="M44.3433 102.774C43.1588 101.581 42.5686 99.9877 42.5686 97.9953C42.5686 96.0049 43.1588 94.4175 44.3433 93.233C45.5318 92.0445 47.0663 91.4502 48.9509 91.4502C50.5139 91.4502 51.8368 91.8389 52.9235 92.6143C54.0083 93.3856 54.7267 94.4907 55.0808 95.9276H50.8314C50.4671 95.1623 49.8667 94.7797 49.0323 94.7797C48.1958 94.7797 47.5751 95.0769 47.1681 95.6671C46.7651 96.2532 46.5657 97.0306 46.5657 97.9953C46.5657 98.962 46.7651 99.7415 47.1681 100.332C47.5751 100.918 48.1694 101.211 48.9509 101.211C49.4393 101.211 49.8219 101.127 50.0987 100.959C50.3755 100.792 50.6197 100.492 50.8314 100.063H55.0808C54.7267 101.443 54.0002 102.538 52.8991 103.352C51.7961 104.162 50.4813 104.565 48.9509 104.565C47.0663 104.565 45.5318 103.969 44.3433 102.774Z" fill="#D9D9D9"/>
<path d="M64.5148 100.34C65.0847 99.7862 65.3696 99.0047 65.3696 97.9953C65.3696 96.9859 65.0847 96.2105 64.5148 95.6671C63.949 95.1196 63.3019 94.8449 62.5692 94.8449C61.8365 94.8449 61.1853 95.1216 60.6154 95.6752C60.0497 96.2288 59.7688 97.0103 59.7688 98.0197C59.7688 99.0292 60.0497 99.8066 60.6154 100.348C61.1853 100.891 61.8365 101.162 62.5692 101.162C63.3019 101.162 63.949 100.889 64.5148 100.34ZM57.465 102.725C56.3355 101.5 55.7717 99.9307 55.7717 98.0197C55.7717 96.1046 56.3355 94.5314 57.465 93.2981C58.5986 92.0669 59.9805 91.4502 61.6086 91.4502C63.2408 91.4502 64.4945 92.0567 65.3696 93.2656V91.5886H69.2934V104.402H65.3696V102.538C64.4192 103.889 63.1472 104.565 61.5516 104.565C59.9601 104.565 58.5986 103.952 57.465 102.725Z" fill="#D9D9D9"/>
<path d="M72.1694 104.402V88.2837H82.6628V91.2632H76.0932V94.7311H81.0102V97.7187H76.0932V104.402H72.1694Z" fill="#D9D9D9"/>
<path d="M88.3723 90.1396C87.9327 90.5853 87.3893 90.8072 86.7442 90.8072C86.1031 90.8072 85.5597 90.5853 85.116 90.1396C84.6703 89.696 84.4485 89.1505 84.4485 88.5034C84.4485 87.8521 84.6703 87.3046 85.116 86.8589C85.5597 86.4153 86.1031 86.1914 86.7442 86.1914C87.3893 86.1914 87.9327 86.4153 88.3723 86.8589C88.816 87.3046 89.0398 87.8521 89.0398 88.5034C89.0398 89.1505 88.816 89.696 88.3723 90.1396ZM84.7985 104.402V91.5887H88.7223V104.402H84.7985Z" fill="#D9D9D9"/>
<path d="M95.519 91.5886V93.4691C96.327 92.1238 97.6214 91.4502 99.4021 91.4502C100.872 91.4502 102.06 91.9427 102.968 92.9237C103.879 93.9005 104.335 95.2315 104.335 96.9126V104.402H100.436V97.4417C100.436 96.6175 100.216 95.9805 99.7766 95.5287C99.3411 95.0728 98.7427 94.8449 97.9775 94.8449C97.2123 94.8449 96.6099 95.0728 96.1703 95.5287C95.7347 95.9805 95.519 96.6175 95.519 97.4417V104.402H91.5952V91.5886H95.519Z" fill="#D9D9D9"/>
<defs>
<linearGradient id="paint0_linear_2544_297" x1="22.1711" y1="34.5695" x2="82.2588" y2="35.4122" gradientUnits="userSpaceOnUse">
<stop stop-color="#79CD29"/>
<stop offset="0.00390625" stop-color="#78CD29"/>
<stop offset="0.0078125" stop-color="#77CD29"/>
<stop offset="0.0117188" stop-color="#76CD29"/>
<stop offset="0.015625" stop-color="#75CD2A"/>
<stop offset="0.0195312" stop-color="#74CD2A"/>
<stop offset="0.0234375" stop-color="#73CD2A"/>
<stop offset="0.0273438" stop-color="#72CD2A"/>
<stop offset="0.03125" stop-color="#72CD2A"/>
<stop offset="0.0351563" stop-color="#71CD2A"/>
<stop offset="0.0390625" stop-color="#70CD2A"/>
<stop offset="0.0429687" stop-color="#6FCD2B"/>
<stop offset="0.046875" stop-color="#6ECD2B"/>
<stop offset="0.0507813" stop-color="#6DCD2B"/>
<stop offset="0.0546875" stop-color="#6CCD2B"/>
<stop offset="0.0585938" stop-color="#6BCD2B"/>
<stop offset="0.0625" stop-color="#6ACD2B"/>
<stop offset="0.0664062" stop-color="#69CD2B"/>
<stop offset="0.0703125" stop-color="#68CD2C"/>
<stop offset="0.0742187" stop-color="#67CD2C"/>
<stop offset="0.078125" stop-color="#66CD2C"/>
<stop offset="0.0820313" stop-color="#65CD2C"/>
<stop offset="0.0859375" stop-color="#64CD2C"/>
<stop offset="0.0898438" stop-color="#63CD2C"/>
<stop offset="0.09375" stop-color="#62CD2C"/>
<stop offset="0.0976563" stop-color="#61CD2D"/>
<stop offset="0.101563" stop-color="#60CD2D"/>
<stop offset="0.105469" stop-color="#5FCD2D"/>
<stop offset="0.109375" stop-color="#5ECD2D"/>
<stop offset="0.113281" stop-color="#5DCD2D"/>
<stop offset="0.117188" stop-color="#5CCD2D"/>
<stop offset="0.121094" stop-color="#5BCD2D"/>
<stop offset="0.125" stop-color="#5ACD2E"/>
<stop offset="0.128906" stop-color="#59CD2E"/>
<stop offset="0.132812" stop-color="#58CD2E"/>
<stop offset="0.136719" stop-color="#57CD2E"/>
<stop offset="0.140625" stop-color="#56CD2E"/>
<stop offset="0.144531" stop-color="#55CD2E"/>
<stop offset="0.148437" stop-color="#54CD2E"/>
<stop offset="0.152344" stop-color="#53CD2E"/>
<stop offset="0.15625" stop-color="#52CD2F"/>
<stop offset="0.160156" stop-color="#51CD2F"/>
<stop offset="0.164063" stop-color="#50CC2F"/>
<stop offset="0.167969" stop-color="#4FCC2F"/>
<stop offset="0.171875" stop-color="#4ECC2F"/>
<stop offset="0.175781" stop-color="#4DCC2F"/>
<stop offset="0.179687" stop-color="#4CCC2F"/>
<stop offset="0.183594" stop-color="#4BCC30"/>
<stop offset="0.1875" stop-color="#4ACC30"/>
<stop offset="0.191406" stop-color="#49CC30"/>
<stop offset="0.195312" stop-color="#48CC30"/>
<stop offset="0.199219" stop-color="#47CC30"/>
<stop offset="0.203125" stop-color="#46CC30"/>
<stop offset="0.207031" stop-color="#45CC30"/>
<stop offset="0.210938" stop-color="#44CC31"/>
<stop offset="0.214844" stop-color="#43CC31"/>
<stop offset="0.21875" stop-color="#42CC31"/>
<stop offset="0.222656" stop-color="#41CC31"/>
<stop offset="0.226562" stop-color="#40CC31"/>
<stop offset="0.230469" stop-color="#3FCC31"/>
<stop offset="0.234375" stop-color="#3ECC31"/>
<stop offset="0.238281" stop-color="#3DCC32"/>
<stop offset="0.242187" stop-color="#3CCC32"/>
<stop offset="0.246094" stop-color="#3BCC32"/>
<stop offset="0.25" stop-color="#3ACC32"/>
<stop offset="0.253906" stop-color="#39CC32"/>
<stop offset="0.257813" stop-color="#38CC32"/>
<stop offset="0.261719" stop-color="#37CC32"/>
<stop offset="0.265625" stop-color="#36CC33"/>
<stop offset="0.269531" stop-color="#35CC33"/>
<stop offset="0.273438" stop-color="#34CC33"/>
<stop offset="0.277344" stop-color="#34CC33"/>
<stop offset="0.28125" stop-color="#33CC34"/>
<stop offset="0.285156" stop-color="#33CC34"/>
<stop offset="0.289062" stop-color="#32CB35"/>
<stop offset="0.292969" stop-color="#32CB36"/>
<stop offset="0.296875" stop-color="#32CB37"/>
<stop offset="0.300781" stop-color="#31CA38"/>
<stop offset="0.304688" stop-color="#31CA39"/>
<stop offset="0.308594" stop-color="#31CA3A"/>
<stop offset="0.3125" stop-color="#31CA3B"/>
<stop offset="0.316406" stop-color="#30C93C"/>
<stop offset="0.320312" stop-color="#30C93D"/>
<stop offset="0.324219" stop-color="#30C93D"/>
<stop offset="0.328125" stop-color="#30C83E"/>
<stop offset="0.332031" stop-color="#2FC83F"/>
<stop offset="0.335937" stop-color="#2FC840"/>
<stop offset="0.339844" stop-color="#2FC841"/>
<stop offset="0.34375" stop-color="#2EC742"/>
<stop offset="0.347656" stop-color="#2EC743"/>
<stop offset="0.351563" stop-color="#2EC744"/>
<stop offset="0.355469" stop-color="#2EC645"/>
<stop offset="0.359375" stop-color="#2DC646"/>
<stop offset="0.363281" stop-color="#2DC646"/>
<stop offset="0.367188" stop-color="#2DC647"/>
<stop offset="0.371094" stop-color="#2CC548"/>
<stop offset="0.375" stop-color="#2CC549"/>
<stop offset="0.378906" stop-color="#2CC54A"/>
<stop offset="0.382812" stop-color="#2CC44B"/>
<stop offset="0.386719" stop-color="#2BC44C"/>
<stop offset="0.390625" stop-color="#2BC44D"/>
<stop offset="0.394531" stop-color="#2BC44E"/>
<stop offset="0.398437" stop-color="#2BC34F"/>
<stop offset="0.402344" stop-color="#2AC350"/>
<stop offset="0.40625" stop-color="#2AC350"/>
<stop offset="0.410156" stop-color="#2AC251"/>
<stop offset="0.414062" stop-color="#29C252"/>
<stop offset="0.417969" stop-color="#29C253"/>
<stop offset="0.421875" stop-color="#29C254"/>
<stop offset="0.425781" stop-color="#29C155"/>
<stop offset="0.429688" stop-color="#28C156"/>
<stop offset="0.433594" stop-color="#28C157"/>
<stop offset="0.4375" stop-color="#28C158"/>
<stop offset="0.441406" stop-color="#27C059"/>
<stop offset="0.445312" stop-color="#27C059"/>
<stop offset="0.449219" stop-color="#27C05A"/>
<stop offset="0.453125" stop-color="#27BF5B"/>
<stop offset="0.457031" stop-color="#26BF5C"/>
<stop offset="0.460938" stop-color="#26BF5D"/>
<stop offset="0.464844" stop-color="#26BF5E"/>
<stop offset="0.46875" stop-color="#26BE5F"/>
<stop offset="0.472656" stop-color="#25BE60"/>
<stop offset="0.476562" stop-color="#25BE61"/>
<stop offset="0.480469" stop-color="#25BD62"/>
<stop offset="0.484375" stop-color="#24BD62"/>
<stop offset="0.488281" stop-color="#24BD63"/>
<stop offset="0.492187" stop-color="#24BD64"/>
<stop offset="0.496094" stop-color="#24BC65"/>
<stop offset="0.5" stop-color="#23BC66"/>
<stop offset="0.503906" stop-color="#23BC67"/>
<stop offset="0.507812" stop-color="#23BB68"/>
<stop offset="0.511719" stop-color="#22BB69"/>
<stop offset="0.515625" stop-color="#22BB6A"/>
<stop offset="0.519531" stop-color="#22BB6B"/>
<stop offset="0.523437" stop-color="#22BA6B"/>
<stop offset="0.527344" stop-color="#21BA6C"/>
<stop offset="0.53125" stop-color="#21BA6D"/>
<stop offset="0.535156" stop-color="#21B96E"/>
<stop offset="0.539062" stop-color="#21B96F"/>
<stop offset="0.542969" stop-color="#20B970"/>
<stop offset="0.546875" stop-color="#20B971"/>
<stop offset="0.550781" stop-color="#20B872"/>
<stop offset="0.554687" stop-color="#1FB873"/>
<stop offset="0.558594" stop-color="#1FB874"/>
<stop offset="0.5625" stop-color="#1FB774"/>
<stop offset="0.566406" stop-color="#1FB775"/>
<stop offset="0.570312" stop-color="#1EB776"/>
<stop offset="0.574219" stop-color="#1EB777"/>
<stop offset="0.578125" stop-color="#1EB678"/>
<stop offset="0.582031" stop-color="#1EB679"/>
<stop offset="0.585938" stop-color="#1DB67A"/>
<stop offset="0.589844" stop-color="#1DB67B"/>
<stop offset="0.59375" stop-color="#1DB57C"/>
<stop offset="0.597656" stop-color="#1CB57D"/>
<stop offset="0.601562" stop-color="#1CB57D"/>
<stop offset="0.605469" stop-color="#1CB47E"/>
<stop offset="0.609375" stop-color="#1CB47F"/>
<stop offset="0.613281" stop-color="#1BB480"/>
<stop offset="0.617187" stop-color="#1BB481"/>
<stop offset="0.621094" stop-color="#1BB382"/>
<stop offset="0.625" stop-color="#1AB383"/>
<stop offset="0.628906" stop-color="#1AB384"/>
<stop offset="0.632812" stop-color="#1AB285"/>
<stop offset="0.636719" stop-color="#1AB286"/>
<stop offset="0.640625" stop-color="#19B286"/>
<stop offset="0.644531" stop-color="#19B287"/>
<stop offset="0.648438" stop-color="#19B188"/>
<stop offset="0.652344" stop-color="#19B189"/>
<stop offset="0.65625" stop-color="#18B18A"/>
<stop offset="0.660156" stop-color="#18B08B"/>
<stop offset="0.664062" stop-color="#18B08C"/>
<stop offset="0.667969" stop-color="#17B08D"/>
<stop offset="0.671875" stop-color="#17B08E"/>
<stop offset="0.675781" stop-color="#17AF8F"/>
<stop offset="0.679688" stop-color="#17AF8F"/>
<stop offset="0.683594" stop-color="#16AF90"/>
<stop offset="0.6875" stop-color="#16AE91"/>
<stop offset="0.691406" stop-color="#16AE92"/>
<stop offset="0.695312" stop-color="#15AE93"/>
<stop offset="0.699219" stop-color="#15AE94"/>
<stop offset="0.703125" stop-color="#15AD95"/>
<stop offset="0.707031" stop-color="#15AD96"/>
<stop offset="0.710937" stop-color="#14AD97"/>
<stop offset="0.714844" stop-color="#14AC98"/>
<stop offset="0.71875" stop-color="#14AC99"/>
<stop offset="0.722656" stop-color="#14AC99"/>
<stop offset="0.726562" stop-color="#13AC9A"/>
<stop offset="0.730469" stop-color="#13AB9B"/>
<stop offset="0.734375" stop-color="#13AB9C"/>
<stop offset="0.738281" stop-color="#12AB9D"/>
<stop offset="0.742188" stop-color="#12AA9E"/>
<stop offset="0.746094" stop-color="#12AA9F"/>
<stop offset="0.75" stop-color="#12AAA0"/>
<stop offset="0.753906" stop-color="#11AAA1"/>
<stop offset="0.757812" stop-color="#11A9A2"/>
<stop offset="0.761719" stop-color="#11A9A2"/>
<stop offset="0.765625" stop-color="#10A9A3"/>
<stop offset="0.769531" stop-color="#10A9A4"/>
<stop offset="0.773438" stop-color="#10A8A5"/>
<stop offset="0.777344" stop-color="#10A8A6"/>
<stop offset="0.78125" stop-color="#0FA8A7"/>
<stop offset="0.785156" stop-color="#0FA7A8"/>
<stop offset="0.789062" stop-color="#0FA7A9"/>
<stop offset="0.792969" stop-color="#0FA7AA"/>
<stop offset="0.796875" stop-color="#0EA7AB"/>
<stop offset="0.800781" stop-color="#0EA6AB"/>
<stop offset="0.804688" stop-color="#0EA6AC"/>
<stop offset="0.808594" stop-color="#0DA6AD"/>
<stop offset="0.8125" stop-color="#0DA5AE"/>
<stop offset="0.816406" stop-color="#0DA5AF"/>
<stop offset="0.820312" stop-color="#0DA5B0"/>
<stop offset="0.824219" stop-color="#0CA5B1"/>
<stop offset="0.828125" stop-color="#0CA4B2"/>
<stop offset="0.832031" stop-color="#0CA4B3"/>
<stop offset="0.835938" stop-color="#0CA4B4"/>
<stop offset="0.839844" stop-color="#0BA3B4"/>
<stop offset="0.84375" stop-color="#0BA3B5"/>
<stop offset="0.847656" stop-color="#0BA3B6"/>
<stop offset="0.851562" stop-color="#0AA3B7"/>
<stop offset="0.855469" stop-color="#0AA2B8"/>
<stop offset="0.859375" stop-color="#0AA2B9"/>
<stop offset="0.863281" stop-color="#0AA2BA"/>
<stop offset="0.867188" stop-color="#09A1BB"/>
<stop offset="0.871094" stop-color="#09A1BC"/>
<stop offset="0.875" stop-color="#09A1BD"/>
<stop offset="0.878906" stop-color="#08A1BD"/>
<stop offset="0.882812" stop-color="#08A0BE"/>
<stop offset="0.886719" stop-color="#08A0BF"/>
<stop offset="0.890625" stop-color="#08A0C0"/>
<stop offset="0.894531" stop-color="#079FC1"/>
<stop offset="0.898438" stop-color="#079FC2"/>
<stop offset="0.902344" stop-color="#079FC3"/>
<stop offset="0.90625" stop-color="#079FC4"/>
<stop offset="0.910156" stop-color="#069EC5"/>
<stop offset="0.914062" stop-color="#069EC6"/>
<stop offset="0.917969" stop-color="#069EC6"/>
<stop offset="0.921875" stop-color="#059DC7"/>
<stop offset="0.925781" stop-color="#059DC8"/>
<stop offset="0.929688" stop-color="#059DC9"/>
<stop offset="0.933594" stop-color="#059DCA"/>
<stop offset="0.9375" stop-color="#049CCB"/>
<stop offset="0.941406" stop-color="#049CCC"/>
<stop offset="0.945312" stop-color="#049CCD"/>
<stop offset="0.949219" stop-color="#039CCE"/>
<stop offset="0.953125" stop-color="#039BCF"/>
<stop offset="0.957031" stop-color="#039BCF"/>
<stop offset="0.960938" stop-color="#039BD0"/>
<stop offset="0.964844" stop-color="#029AD1"/>
<stop offset="0.96875" stop-color="#029AD2"/>
<stop offset="0.972656" stop-color="#029AD3"/>
<stop offset="0.976563" stop-color="#029AD4"/>
<stop offset="0.980469" stop-color="#0199D5"/>
<stop offset="0.984375" stop-color="#0199D6"/>
<stop offset="0.988281" stop-color="#0199D7"/>
<stop offset="0.992188" stop-color="#0098D8"/>
<stop offset="0.996094" stop-color="#0098D8"/>
<stop offset="1" stop-color="#0098D9"/>
</linearGradient>
</defs>
</svg>
